<svg width="100" height="34" viewBox="0 0 100 34" fill="none" xmlns="http://www.w3.org/2000/svg">
<path d="M26.0499 16.974C26.4046 17.03 26.7266 17.1747 27.0159 17.408C27.3146 17.6413 27.5479 17.9307 27.7159 18.276C27.8933 18.6213 27.9819 18.99 27.9819 19.382C27.9819 19.8767 27.8559 20.3247 27.6039 20.726C27.3519 21.118 26.9833 21.4307 26.4979 21.664C26.0219 21.888 25.4573 22 24.8039 22H21.1639V12.242H24.6639C25.3266 12.242 25.8913 12.354 26.3579 12.578C26.8246 12.7927 27.1746 13.0867 27.4079 13.46C27.6413 13.8333 27.7579 14.2533 27.7579 14.72C27.7579 15.2987 27.5993 15.7793 27.2819 16.162C26.9739 16.5353 26.5633 16.806 26.0499 16.974ZM22.4379 16.456H24.5799C25.1773 16.456 25.6393 16.316 25.9659 16.036C26.2926 15.756 26.4559 15.3687 26.4559 14.874C26.4559 14.3793 26.2926 13.992 25.9659 13.712C25.6393 13.432 25.1679 13.292 24.5519 13.292H22.4379V16.456ZM24.6919 20.95C25.3266 20.95 25.8213 20.8007 26.1759 20.502C26.5306 20.2033 26.7079 19.788 26.7079 19.256C26.7079 18.7147 26.5213 18.29 26.1479 17.982C25.7746 17.6647 25.2753 17.506 24.6499 17.506H22.4379V20.95H24.6919ZM29.2739 18.136C29.2739 17.352 29.4325 16.666 29.7499 16.078C30.0672 15.4807 30.5012 15.0187 31.0519 14.692C31.6119 14.3653 32.2325 14.202 32.9139 14.202C33.5859 14.202 34.1692 14.3467 34.6639 14.636C35.1585 14.9253 35.5272 15.2893 35.7699 15.728V14.328H37.0579V22H35.7699V20.572C35.5179 21.02 35.1399 21.3933 34.6359 21.692C34.1412 21.9813 33.5625 22.126 32.8999 22.126C32.2185 22.126 31.6025 21.958 31.0519 21.622C30.5012 21.286 30.0672 20.8147 29.7499 20.208C29.4325 19.6013 29.2739 18.9107 29.2739 18.136ZM35.7699 18.15C35.7699 17.5713 35.6532 17.0673 35.4199 16.638C35.1865 16.2087 34.8692 15.882 34.4679 15.658C34.0759 15.4247 33.6419 15.308 33.1659 15.308C32.6899 15.308 32.2559 15.42 31.8639 15.644C31.4719 15.868 31.1592 16.1947 30.9259 16.624C30.6925 17.0533 30.5759 17.5573 30.5759 18.136C30.5759 18.724 30.6925 19.2373 30.9259 19.676C31.1592 20.1053 31.4719 20.4367 31.8639 20.67C32.2559 20.894 32.6899 21.006 33.1659 21.006C33.6419 21.006 34.0759 20.894 34.4679 20.67C34.8692 20.4367 35.1865 20.1053 35.4199 19.676C35.6532 19.2373 35.7699 18.7287 35.7699 18.15ZM42.9488 14.188C43.8821 14.188 44.6381 14.4727 45.2168 15.042C45.7955 15.602 46.0848 16.414 46.0848 17.478V22H44.8248V17.66C44.8248 16.8947 44.6335 16.3113 44.2508 15.91C43.8681 15.4993 43.3455 15.294 42.6828 15.294C42.0108 15.294 41.4741 15.504 41.0728 15.924C40.6808 16.344 40.4848 16.9553 40.4848 17.758V22H39.2108V14.328H40.4848V15.42C40.7368 15.028 41.0775 14.7247 41.5068 14.51C41.9455 14.2953 42.4261 14.188 42.9488 14.188ZM51.3299 14.202C51.9926 14.202 52.5712 14.3467 53.0659 14.636C53.5699 14.9253 53.9432 15.2893 54.1859 15.728V14.328H55.4739V22.168C55.4739 22.868 55.3246 23.4887 55.0259 24.03C54.7272 24.5807 54.2979 25.01 53.7379 25.318C53.1872 25.626 52.5432 25.78 51.8059 25.78C50.7979 25.78 49.9579 25.542 49.2859 25.066C48.6139 24.59 48.2172 23.9413 48.0959 23.12H49.3559C49.4959 23.5867 49.7852 23.96 50.2239 24.24C50.6626 24.5293 51.1899 24.674 51.8059 24.674C52.5059 24.674 53.0752 24.4547 53.5139 24.016C53.9619 23.5773 54.1859 22.9613 54.1859 22.168V20.558C53.9339 21.006 53.5606 21.3793 53.0659 21.678C52.5712 21.9767 51.9926 22.126 51.3299 22.126C50.6486 22.126 50.0279 21.958 49.4679 21.622C48.9172 21.286 48.4832 20.8147 48.1659 20.208C47.8486 19.6013 47.6899 18.9107 47.6899 18.136C47.6899 17.352 47.8486 16.666 48.1659 16.078C48.4832 15.4807 48.9172 15.0187 49.4679 14.692C50.0279 14.3653 50.6486 14.202 51.3299 14.202ZM54.1859 18.15C54.1859 17.5713 54.0692 17.0673 53.8359 16.638C53.6026 16.2087 53.2852 15.882 52.8839 15.658C52.4919 15.4247 52.0579 15.308 51.5819 15.308C51.1059 15.308 50.6719 15.42 50.2799 15.644C49.8879 15.868 49.5752 16.1947 49.3419 16.624C49.1086 17.0533 48.9919 17.5573 48.9919 18.136C48.9919 18.724 49.1086 19.2373 49.3419 19.676C49.5752 20.1053 49.8879 20.4367 50.2799 20.67C50.6719 20.894 51.1059 21.006 51.5819 21.006C52.0579 21.006 52.4919 20.894 52.8839 20.67C53.2852 20.4367 53.6026 20.1053 53.8359 19.676C54.0692 19.2373 54.1859 18.7287 54.1859 18.15ZM61.9108 22L58.9008 18.612V22H57.6268V11.64H58.9008V17.73L61.8548 14.328H63.6328L60.0208 18.15L63.6468 22H61.9108ZM68.1779 22.126C67.4592 22.126 66.8059 21.9627 66.2179 21.636C65.6392 21.3093 65.1819 20.8473 64.8459 20.25C64.5192 19.6433 64.3559 18.9433 64.3559 18.15C64.3559 17.366 64.5239 16.6753 64.8599 16.078C65.2052 15.4713 65.6719 15.0093 66.2599 14.692C66.8479 14.3653 67.5059 14.202 68.2339 14.202C68.9619 14.202 69.6199 14.3653 70.2079 14.692C70.7959 15.0093 71.2579 15.4667 71.5939 16.064C71.9392 16.6613 72.1119 17.3567 72.1119 18.15C72.1119 18.9433 71.9346 19.6433 71.5799 20.25C71.2346 20.8473 70.7632 21.3093 70.1659 21.636C69.5686 21.9627 68.9059 22.126 68.1779 22.126ZM68.1779 21.006C68.6352 21.006 69.0646 20.8987 69.4659 20.684C69.8672 20.4693 70.1892 20.1473 70.4319 19.718C70.6839 19.2887 70.8099 18.766 70.8099 18.15C70.8099 17.534 70.6886 17.0113 70.4459 16.582C70.2032 16.1527 69.8859 15.8353 69.4939 15.63C69.1019 15.4153 68.6772 15.308 68.2199 15.308C67.7532 15.308 67.3239 15.4153 66.9319 15.63C66.5492 15.8353 66.2412 16.1527 66.0079 16.582C65.7746 17.0113 65.6579 17.534 65.6579 18.15C65.6579 18.7753 65.7699 19.3027 65.9939 19.732C66.2272 20.1613 66.5352 20.4833 66.9179 20.698C67.3006 20.9033 67.7206 21.006 68.1779 21.006ZM78.071 22L75.061 18.612V22H73.787V11.64H75.061V17.73L78.015 14.328H79.793L76.181 18.15L79.807 22H78.071Z" fill="#2D3134"/>
<rect x="0.5" y="0.5" width="99" height="33" rx="16.5" stroke="#3D3D3D"/>
</svg>
