<svg width="97" height="34" viewBox="0 0 97 34" fill="none" xmlns="http://www.w3.org/2000/svg">
<path d="M22.394 13.278V16.54H25.95V17.59H22.394V20.95H26.37V22H21.12V12.228H26.37V13.278H22.394ZM32.0357 14.188C32.9691 14.188 33.7251 14.4727 34.3037 15.042C34.8824 15.602 35.1717 16.414 35.1717 17.478V22H33.9117V17.66C33.9117 16.8947 33.7204 16.3113 33.3377 15.91C32.9551 15.4993 32.4324 15.294 31.7697 15.294C31.0977 15.294 30.5611 15.504 30.1597 15.924C29.7677 16.344 29.5717 16.9553 29.5717 17.758V22H28.2977V14.328H29.5717V15.42C29.8237 15.028 30.1644 14.7247 30.5937 14.51C31.0324 14.2953 31.5131 14.188 32.0357 14.188ZM40.4168 14.202C41.0795 14.202 41.6581 14.3467 42.1528 14.636C42.6568 14.9253 43.0301 15.2893 43.2728 15.728V14.328H44.5608V22.168C44.5608 22.868 44.4115 23.4887 44.1128 24.03C43.8141 24.5807 43.3848 25.01 42.8248 25.318C42.2741 25.626 41.6301 25.78 40.8928 25.78C39.8848 25.78 39.0448 25.542 38.3728 25.066C37.7008 24.59 37.3041 23.9413 37.1828 23.12H38.4428C38.5828 23.5867 38.8721 23.96 39.3108 24.24C39.7495 24.5293 40.2768 24.674 40.8928 24.674C41.5928 24.674 42.1621 24.4547 42.6008 24.016C43.0488 23.5773 43.2728 22.9613 43.2728 22.168V20.558C43.0208 21.006 42.6475 21.3793 42.1528 21.678C41.6581 21.9767 41.0795 22.126 40.4168 22.126C39.7355 22.126 39.1148 21.958 38.5548 21.622C38.0041 21.286 37.5701 20.8147 37.2528 20.208C36.9355 19.6013 36.7768 18.9107 36.7768 18.136C36.7768 17.352 36.9355 16.666 37.2528 16.078C37.5701 15.4807 38.0041 15.0187 38.5548 14.692C39.1148 14.3653 39.7355 14.202 40.4168 14.202ZM43.2728 18.15C43.2728 17.5713 43.1561 17.0673 42.9228 16.638C42.6895 16.2087 42.3721 15.882 41.9708 15.658C41.5788 15.4247 41.1448 15.308 40.6688 15.308C40.1928 15.308 39.7588 15.42 39.3668 15.644C38.9748 15.868 38.6621 16.1947 38.4288 16.624C38.1955 17.0533 38.0788 17.5573 38.0788 18.136C38.0788 18.724 38.1955 19.2373 38.4288 19.676C38.6621 20.1053 38.9748 20.4367 39.3668 20.67C39.7588 20.894 40.1928 21.006 40.6688 21.006C41.1448 21.006 41.5788 20.894 41.9708 20.67C42.3721 20.4367 42.6895 20.1053 42.9228 19.676C43.1561 19.2373 43.2728 18.7287 43.2728 18.15ZM47.9877 11.64V22H46.7137V11.64H47.9877ZM49.6831 18.136C49.6831 17.352 49.8417 16.666 50.1591 16.078C50.4764 15.4807 50.9104 15.0187 51.4611 14.692C52.0211 14.3653 52.6417 14.202 53.3231 14.202C53.9951 14.202 54.5784 14.3467 55.0731 14.636C55.5677 14.9253 55.9364 15.2893 56.1791 15.728V14.328H57.4671V22H56.1791V20.572C55.9271 21.02 55.5491 21.3933 55.0451 21.692C54.5504 21.9813 53.9717 22.126 53.3091 22.126C52.6277 22.126 52.0117 21.958 51.4611 21.622C50.9104 21.286 50.4764 20.8147 50.1591 20.208C49.8417 19.6013 49.6831 18.9107 49.6831 18.136ZM56.1791 18.15C56.1791 17.5713 56.0624 17.0673 55.8291 16.638C55.5957 16.2087 55.2784 15.882 54.8771 15.658C54.4851 15.4247 54.0511 15.308 53.5751 15.308C53.0991 15.308 52.6651 15.42 52.2731 15.644C51.8811 15.868 51.5684 16.1947 51.3351 16.624C51.1017 17.0533 50.9851 17.5573 50.9851 18.136C50.9851 18.724 51.1017 19.2373 51.3351 19.676C51.5684 20.1053 51.8811 20.4367 52.2731 20.67C52.6651 20.894 53.0991 21.006 53.5751 21.006C54.0511 21.006 54.4851 20.894 54.8771 20.67C55.2784 20.4367 55.5957 20.1053 55.8291 19.676C56.0624 19.2373 56.1791 18.7287 56.1791 18.15ZM63.358 14.188C64.2913 14.188 65.0473 14.4727 65.626 15.042C66.2047 15.602 66.494 16.414 66.494 17.478V22H65.234V17.66C65.234 16.8947 65.0427 16.3113 64.66 15.91C64.2773 15.4993 63.7547 15.294 63.092 15.294C62.42 15.294 61.8833 15.504 61.482 15.924C61.09 16.344 60.894 16.9553 60.894 17.758V22H59.62V14.328H60.894V15.42C61.146 15.028 61.4867 14.7247 61.916 14.51C62.3547 14.2953 62.8353 14.188 63.358 14.188ZM68.0991 18.136C68.0991 17.352 68.2577 16.666 68.5751 16.078C68.8924 15.4807 69.3264 15.0187 69.8771 14.692C70.4371 14.3653 71.0624 14.202 71.7531 14.202C72.3504 14.202 72.9057 14.342 73.4191 14.622C73.9324 14.8927 74.3244 15.252 74.5951 15.7V11.64H75.8831V22H74.5951V20.558C74.3431 21.0153 73.9697 21.3933 73.4751 21.692C72.9804 21.9813 72.4017 22.126 71.7391 22.126C71.0577 22.126 70.4371 21.958 69.8771 21.622C69.3264 21.286 68.8924 20.8147 68.5751 20.208C68.2577 19.6013 68.0991 18.9107 68.0991 18.136ZM74.5951 18.15C74.5951 17.5713 74.4784 17.0673 74.2451 16.638C74.0117 16.2087 73.6944 15.882 73.2931 15.658C72.9011 15.4247 72.4671 15.308 71.9911 15.308C71.5151 15.308 71.0811 15.42 70.6891 15.644C70.2971 15.868 69.9844 16.1947 69.7511 16.624C69.5177 17.0533 69.4011 17.5573 69.4011 18.136C69.4011 18.724 69.5177 19.2373 69.7511 19.676C69.9844 20.1053 70.2971 20.4367 70.6891 20.67C71.0811 20.894 71.5151 21.006 71.9911 21.006C72.4671 21.006 72.9011 20.894 73.2931 20.67C73.6944 20.4367 74.0117 20.1053 74.2451 19.676C74.4784 19.2373 74.5951 18.7287 74.5951 18.15Z" fill="#2D3134"/>
<rect x="0.5" y="0.5" width="96" height="33" rx="16.5" stroke="#3D3D3D"/>
</svg>
