<svg width="112" height="34" viewBox="0 0 112 34" fill="none" xmlns="http://www.w3.org/2000/svg">
<path d="M24.2423 22.098C23.5983 22.098 23.0196 21.986 22.5063 21.762C22.0023 21.5287 21.6056 21.2113 21.3163 20.81C21.027 20.3993 20.8776 19.928 20.8683 19.396H22.2263C22.273 19.8533 22.4596 20.2407 22.7863 20.558C23.1223 20.866 23.6076 21.02 24.2423 21.02C24.849 21.02 25.325 20.8707 25.6703 20.572C26.025 20.264 26.2023 19.872 26.2023 19.396C26.2023 19.0227 26.0996 18.7193 25.8943 18.486C25.689 18.2527 25.4323 18.0753 25.1243 17.954C24.8163 17.8327 24.401 17.702 23.8783 17.562C23.2343 17.394 22.7163 17.226 22.3243 17.058C21.9416 16.89 21.6103 16.6287 21.3303 16.274C21.0596 15.91 20.9243 15.4247 20.9243 14.818C20.9243 14.286 21.0596 13.8147 21.3303 13.404C21.601 12.9933 21.979 12.676 22.4643 12.452C22.959 12.228 23.5236 12.116 24.1583 12.116C25.073 12.116 25.8196 12.3447 26.3983 12.802C26.9863 13.2593 27.3176 13.866 27.3923 14.622H25.9923C25.9456 14.2487 25.7496 13.922 25.4043 13.642C25.059 13.3527 24.6016 13.208 24.0323 13.208C23.5003 13.208 23.0663 13.348 22.7303 13.628C22.3943 13.8987 22.2263 14.2813 22.2263 14.776C22.2263 15.1307 22.3243 15.42 22.5203 15.644C22.7256 15.868 22.973 16.0407 23.2623 16.162C23.561 16.274 23.9763 16.4047 24.5083 16.554C25.1523 16.7313 25.6703 16.9087 26.0623 17.086C26.4543 17.254 26.7903 17.52 27.0703 17.884C27.3503 18.2387 27.4903 18.724 27.4903 19.34C27.4903 19.816 27.3643 20.264 27.1123 20.684C26.8603 21.104 26.487 21.4447 25.9923 21.706C25.4976 21.9673 24.9143 22.098 24.2423 22.098ZM30.0231 13.082C29.7804 13.082 29.5751 12.998 29.4071 12.83C29.2391 12.662 29.1551 12.4567 29.1551 12.214C29.1551 11.9713 29.2391 11.766 29.4071 11.598C29.5751 11.43 29.7804 11.346 30.0231 11.346C30.2564 11.346 30.4524 11.43 30.6111 11.598C30.7791 11.766 30.8631 11.9713 30.8631 12.214C30.8631 12.4567 30.7791 12.662 30.6111 12.83C30.4524 12.998 30.2564 13.082 30.0231 13.082ZM30.6391 14.328V22H29.3651V14.328H30.6391ZM36.5484 14.188C37.4818 14.188 38.2378 14.4727 38.8164 15.042C39.3951 15.602 39.6844 16.414 39.6844 17.478V22H38.4244V17.66C38.4244 16.8947 38.2331 16.3113 37.8504 15.91C37.4678 15.4993 36.9451 15.294 36.2824 15.294C35.6104 15.294 35.0738 15.504 34.6724 15.924C34.2804 16.344 34.0844 16.9553 34.0844 17.758V22H32.8104V14.328H34.0844V15.42C34.3364 15.028 34.6771 14.7247 35.1064 14.51C35.5451 14.2953 36.0258 14.188 36.5484 14.188ZM44.9295 14.202C45.5922 14.202 46.1708 14.3467 46.6655 14.636C47.1695 14.9253 47.5428 15.2893 47.7855 15.728V14.328H49.0735V22.168C49.0735 22.868 48.9242 23.4887 48.6255 24.03C48.3268 24.5807 47.8975 25.01 47.3375 25.318C46.7868 25.626 46.1428 25.78 45.4055 25.78C44.3975 25.78 43.5575 25.542 42.8855 25.066C42.2135 24.59 41.8168 23.9413 41.6955 23.12H42.9555C43.0955 23.5867 43.3848 23.96 43.8235 24.24C44.2622 24.5293 44.7895 24.674 45.4055 24.674C46.1055 24.674 46.6748 24.4547 47.1135 24.016C47.5615 23.5773 47.7855 22.9613 47.7855 22.168V20.558C47.5335 21.006 47.1602 21.3793 46.6655 21.678C46.1708 21.9767 45.5922 22.126 44.9295 22.126C44.2482 22.126 43.6275 21.958 43.0675 21.622C42.5168 21.286 42.0828 20.8147 41.7655 20.208C41.4482 19.6013 41.2895 18.9107 41.2895 18.136C41.2895 17.352 41.4482 16.666 41.7655 16.078C42.0828 15.4807 42.5168 15.0187 43.0675 14.692C43.6275 14.3653 44.2482 14.202 44.9295 14.202ZM47.7855 18.15C47.7855 17.5713 47.6688 17.0673 47.4355 16.638C47.2022 16.2087 46.8848 15.882 46.4835 15.658C46.0915 15.4247 45.6575 15.308 45.1815 15.308C44.7055 15.308 44.2715 15.42 43.8795 15.644C43.4875 15.868 43.1748 16.1947 42.9415 16.624C42.7082 17.0533 42.5915 17.5573 42.5915 18.136C42.5915 18.724 42.7082 19.2373 42.9415 19.676C43.1748 20.1053 43.4875 20.4367 43.8795 20.67C44.2715 20.894 44.7055 21.006 45.1815 21.006C45.6575 21.006 46.0915 20.894 46.4835 20.67C46.8848 20.4367 47.2022 20.1053 47.4355 19.676C47.6688 19.2373 47.7855 18.7287 47.7855 18.15ZM50.7504 18.136C50.7504 17.352 50.9091 16.666 51.2264 16.078C51.5438 15.4807 51.9778 15.0187 52.5284 14.692C53.0884 14.3653 53.7091 14.202 54.3904 14.202C55.0624 14.202 55.6458 14.3467 56.1404 14.636C56.6351 14.9253 57.0038 15.2893 57.2464 15.728V14.328H58.5344V22H57.2464V20.572C56.9944 21.02 56.6164 21.3933 56.1124 21.692C55.6178 21.9813 55.0391 22.126 54.3764 22.126C53.6951 22.126 53.0791 21.958 52.5284 21.622C51.9778 21.286 51.5438 20.8147 51.2264 20.208C50.9091 19.6013 50.7504 18.9107 50.7504 18.136ZM57.2464 18.15C57.2464 17.5713 57.1298 17.0673 56.8964 16.638C56.6631 16.2087 56.3458 15.882 55.9444 15.658C55.5524 15.4247 55.1184 15.308 54.6424 15.308C54.1664 15.308 53.7324 15.42 53.3404 15.644C52.9484 15.868 52.6358 16.1947 52.4024 16.624C52.1691 17.0533 52.0524 17.5573 52.0524 18.136C52.0524 18.724 52.1691 19.2373 52.4024 19.676C52.6358 20.1053 52.9484 20.4367 53.3404 20.67C53.7324 20.894 54.1664 21.006 54.6424 21.006C55.1184 21.006 55.5524 20.894 55.9444 20.67C56.3458 20.4367 56.6631 20.1053 56.8964 19.676C57.1298 19.2373 57.2464 18.7287 57.2464 18.15ZM61.9614 15.742C62.2134 15.3033 62.5867 14.9393 63.0814 14.65C63.5854 14.3513 64.1687 14.202 64.8314 14.202C65.5127 14.202 66.1287 14.3653 66.6794 14.692C67.2394 15.0187 67.678 15.4807 67.9954 16.078C68.3127 16.666 68.4714 17.352 68.4714 18.136C68.4714 18.9107 68.3127 19.6013 67.9954 20.208C67.678 20.8147 67.2394 21.286 66.6794 21.622C66.1287 21.958 65.5127 22.126 64.8314 22.126C64.178 22.126 63.5994 21.9813 63.0954 21.692C62.6007 21.3933 62.2227 21.0247 61.9614 20.586V25.64H60.6874V14.328H61.9614V15.742ZM67.1694 18.136C67.1694 17.5573 67.0527 17.0533 66.8194 16.624C66.586 16.1947 66.2687 15.868 65.8674 15.644C65.4754 15.42 65.0414 15.308 64.5654 15.308C64.0987 15.308 63.6647 15.4247 63.2634 15.658C62.8714 15.882 62.554 16.2133 62.3114 16.652C62.078 17.0813 61.9614 17.5807 61.9614 18.15C61.9614 18.7287 62.078 19.2373 62.3114 19.676C62.554 20.1053 62.8714 20.4367 63.2634 20.67C63.6647 20.894 64.0987 21.006 64.5654 21.006C65.0414 21.006 65.4754 20.894 65.8674 20.67C66.2687 20.4367 66.586 20.1053 66.8194 19.676C67.0527 19.2373 67.1694 18.724 67.1694 18.136ZM73.4943 22.126C72.7756 22.126 72.1223 21.9627 71.5343 21.636C70.9556 21.3093 70.4983 20.8473 70.1623 20.25C69.8356 19.6433 69.6723 18.9433 69.6723 18.15C69.6723 17.366 69.8403 16.6753 70.1763 16.078C70.5216 15.4713 70.9883 15.0093 71.5763 14.692C72.1643 14.3653 72.8223 14.202 73.5503 14.202C74.2783 14.202 74.9363 14.3653 75.5243 14.692C76.1123 15.0093 76.5743 15.4667 76.9103 16.064C77.2556 16.6613 77.4283 17.3567 77.4283 18.15C77.4283 18.9433 77.251 19.6433 76.8963 20.25C76.551 20.8473 76.0796 21.3093 75.4823 21.636C74.885 21.9627 74.2223 22.126 73.4943 22.126ZM73.4943 21.006C73.9516 21.006 74.381 20.8987 74.7823 20.684C75.1836 20.4693 75.5056 20.1473 75.7483 19.718C76.0003 19.2887 76.1263 18.766 76.1263 18.15C76.1263 17.534 76.005 17.0113 75.7623 16.582C75.5196 16.1527 75.2023 15.8353 74.8103 15.63C74.4183 15.4153 73.9936 15.308 73.5363 15.308C73.0696 15.308 72.6403 15.4153 72.2483 15.63C71.8656 15.8353 71.5576 16.1527 71.3243 16.582C71.091 17.0113 70.9743 17.534 70.9743 18.15C70.9743 18.7753 71.0863 19.3027 71.3103 19.732C71.5436 20.1613 71.8516 20.4833 72.2343 20.698C72.617 20.9033 73.037 21.006 73.4943 21.006ZM80.3774 15.574C80.6014 15.1353 80.9187 14.7947 81.3294 14.552C81.7494 14.3093 82.2581 14.188 82.8554 14.188V15.504H82.5194C81.0914 15.504 80.3774 16.2787 80.3774 17.828V22H79.1034V14.328H80.3774V15.574ZM91.326 17.87C91.326 18.1127 91.312 18.3693 91.284 18.64H85.152C85.1987 19.396 85.4554 19.9887 85.922 20.418C86.398 20.838 86.972 21.048 87.644 21.048C88.1947 21.048 88.652 20.922 89.016 20.67C89.3894 20.4087 89.6507 20.0633 89.8 19.634H91.172C90.9667 20.3713 90.556 20.9733 89.94 21.44C89.324 21.8973 88.5587 22.126 87.644 22.126C86.916 22.126 86.2627 21.9627 85.684 21.636C85.1147 21.3093 84.6667 20.8473 84.34 20.25C84.0134 19.6433 83.85 18.9433 83.85 18.15C83.85 17.3567 84.0087 16.6613 84.326 16.064C84.6434 15.4667 85.0867 15.0093 85.656 14.692C86.2347 14.3653 86.8974 14.202 87.644 14.202C88.372 14.202 89.016 14.3607 89.576 14.678C90.136 14.9953 90.5654 15.434 90.864 15.994C91.172 16.5447 91.326 17.17 91.326 17.87ZM90.01 17.604C90.01 17.1187 89.9027 16.7033 89.688 16.358C89.4734 16.0033 89.1794 15.7373 88.806 15.56C88.442 15.3733 88.036 15.28 87.588 15.28C86.944 15.28 86.3934 15.4853 85.936 15.896C85.488 16.3067 85.2314 16.876 85.166 17.604H90.01Z" fill="#2D3134"/>
<rect x="0.5" y="0.5" width="111" height="33" rx="16.5" stroke="#3D3D3D"/>
</svg>
