<svg width="70" height="34" viewBox="0 0 70 34" fill="none" xmlns="http://www.w3.org/2000/svg">
<path d="M22.6821 12.242V22H21.4081V12.242H22.6821ZM26.4074 15.378V19.9C26.4074 20.2733 26.4867 20.5393 26.6454 20.698C26.8041 20.8473 27.0794 20.922 27.4714 20.922H28.4094V22H27.2614C26.5521 22 26.0201 21.8367 25.6654 21.51C25.3107 21.1833 25.1334 20.6467 25.1334 19.9V15.378H24.1394V14.328H25.1334V12.396H26.4074V14.328H28.4094V15.378H26.4074ZM29.477 18.136C29.477 17.352 29.6357 16.666 29.953 16.078C30.2703 15.4807 30.7043 15.0187 31.255 14.692C31.815 14.3653 32.4357 14.202 33.117 14.202C33.789 14.202 34.3723 14.3467 34.867 14.636C35.3617 14.9253 35.7303 15.2893 35.973 15.728V14.328H37.261V22H35.973V20.572C35.721 21.02 35.343 21.3933 34.839 21.692C34.3443 21.9813 33.7657 22.126 33.103 22.126C32.4217 22.126 31.8057 21.958 31.255 21.622C30.7043 21.286 30.2703 20.8147 29.953 20.208C29.6357 19.6013 29.477 18.9107 29.477 18.136ZM35.973 18.15C35.973 17.5713 35.8563 17.0673 35.623 16.638C35.3897 16.2087 35.0723 15.882 34.671 15.658C34.279 15.4247 33.845 15.308 33.369 15.308C32.893 15.308 32.459 15.42 32.067 15.644C31.675 15.868 31.3623 16.1947 31.129 16.624C30.8957 17.0533 30.779 17.5573 30.779 18.136C30.779 18.724 30.8957 19.2373 31.129 19.676C31.3623 20.1053 31.675 20.4367 32.067 20.67C32.459 20.894 32.893 21.006 33.369 21.006C33.845 21.006 34.279 20.894 34.671 20.67C35.0723 20.4367 35.3897 20.1053 35.623 19.676C35.8563 19.2373 35.973 18.7287 35.973 18.15ZM40.6879 11.64V22H39.4139V11.64H40.6879ZM49.4673 14.328L44.8473 25.612H43.5312L45.0433 21.916L41.9493 14.328H43.3633L45.7713 20.544L48.1513 14.328H49.4673Z" fill="#2D3134"/>
<rect x="0.5" y="0.5" width="69" height="33" rx="16.5" stroke="#3D3D3D"/>
</svg>
